<svg width="55" height="22" viewBox="0 0 55 22" fill="none" xmlns="http://www.w3.org/2000/svg">
<path fill-rule="evenodd" clip-rule="evenodd" d="M41.7329 21.4784H38.7108V20.3741C37.5432 21.3884 36.0178 21.9926 34.2232 21.9926C29.9316 21.9926 26.4474 18.5371 26.4474 14.2809C26.4474 10.0247 29.9316 6.56923 34.2232 6.56923C36.0178 6.56923 37.5432 7.17341 38.7108 8.18771V7.08328H41.7329V21.4784ZM3.37055 21.4784H0.348595V7.08338H3.37055V7.88275C4.04167 7.25699 5.30472 6.57134 6.87171 6.56923C8.88414 6.56923 10.6863 7.47818 11.8837 8.9035C13.0813 7.47818 14.8834 6.56923 16.8959 6.56923C20.4927 6.56923 23.419 9.47139 23.419 13.0385V21.4784H20.3969V13.0385C20.3969 11.124 18.8263 9.56636 16.8959 9.56636C14.9653 9.56636 13.3948 11.124 13.3948 13.0385V21.4784H10.3728V13.0385C10.3728 11.124 8.80211 9.56636 6.87171 9.56636C4.9412 9.56636 3.37055 11.124 3.37055 13.0385V21.4784ZM45.3442 21.4784H48.3663V7.08337H45.3442V21.4784ZM51.9779 21.4784H55V0.914003H51.9779V21.4784ZM34.2232 9.52593C36.8694 9.52593 38.9546 11.6566 38.9546 14.2809C38.9546 16.9052 36.8694 19.0358 34.2232 19.0358C31.5771 19.0358 29.4287 16.9052 29.4287 14.2809C29.4287 11.6566 31.5771 9.52593 34.2232 9.52593ZM46.8577 0.399857C48.0033 0.399857 48.9333 1.32231 48.9333 2.4584C48.9333 3.59458 48.0033 4.51704 46.8577 4.51704C45.712 4.51704 44.782 3.59458 44.782 2.4584C44.782 1.32231 45.712 0.399857 46.8577 0.399857Z" fill="white"/>
</svg>
